<svg xmlns="http://www.w3.org/2000/svg" xmlns:xlink="http://www.w3.org/1999/xlink" viewBox="0 0 722.3 500"><defs><style>.cls-1{fill:none;}.cls-2{fill:#221e1f;}.cls-3{clip-path:url(#clip-path);}.cls-4{fill:url(#Degradado_sin_nombre_6);}.cls-5{clip-path:url(#clip-path-2);}.cls-6{fill:url(#Degradado_sin_nombre_6-2);}.cls-7{clip-path:url(#clip-path-3);}.cls-8{fill:url(#Degradado_sin_nombre_6-3);}.cls-9{clip-path:url(#clip-path-4);}.cls-10{fill:url(#Degradado_sin_nombre_6-4);}.cls-11{fill:#00529a;}</style><clipPath id="clip-path"><path class="cls-1" d="M564.2,34.3a.1.1,0,0,1,.1.1l-.1-.1Z"/></clipPath><linearGradient id="Degradado_sin_nombre_6" x1="41749.84" y1="-10417.85" x2="41756.47" y2="-10417.85" gradientTransform="translate(-223.99 231.03) scale(0.02)" gradientUnits="userSpaceOnUse"><stop offset="0" stop-color="#006ab5"/><stop offset="0.63" stop-color="#00adee"/><stop offset="0.68" stop-color="#04aee8"/><stop offset="0.73" stop-color="#11b0d9"/><stop offset="0.8" stop-color="#26b4be"/><stop offset="0.87" stop-color="#43b99a"/><stop offset="0.94" stop-color="#68bf6c"/><stop offset="1" stop-color="#8bc53f"/></linearGradient><clipPath id="clip-path-2"><path class="cls-1" d="M564.2,466.9h0l.1-.1c0,.1,0,.1-.1.1"/></clipPath><linearGradient id="Degradado_sin_nombre_6-2" x1="51622.99" y1="11112.11" x2="51629.62" y2="11112.11" gradientTransform="translate(-226.49 296.74) scale(0.02)" xlink:href="#Degradado_sin_nombre_6"/><clipPath id="clip-path-3"><polygon class="cls-1" points="689.1 250.7 689.2 250.6 689.1 250.5 689.1 250.7"/></clipPath><linearGradient id="Degradado_sin_nombre_6-3" x1="689.1" y1="250.55" x2="689.1" y2="250.55" gradientTransform="translate(-214.63 265.35) scale(0.01)" xlink:href="#Degradado_sin_nombre_6"/><clipPath id="clip-path-4"><path class="cls-1" d="M314.5,1.1a33.09,33.09,0,0,0-28.7,16.6L215,140.3h36.2L309.6,39.1a13.79,13.79,0,0,1,4.8-4.8h0a13.41,13.41,0,0,1,6.5-1.7H557.5a13.13,13.13,0,0,1,6.5,1.7h.1v.1a12.75,12.75,0,0,1,4.7,4.8L687.1,244.1a12.64,12.64,0,0,1,1.7,6.5v.2a13.7,13.7,0,0,1-1.7,6.5l-118,204.8a14.39,14.39,0,0,1-4.7,4.8v.1h-.1a13.59,13.59,0,0,1-6.6,1.8H321a12.24,12.24,0,0,1-6.5-1.8h0a12.31,12.31,0,0,1-4.8-4.8L250,358.8H213.8l72.1,124.8a33.18,33.18,0,0,0,28.7,16.6H564.4a33.09,33.09,0,0,0,28.7-16.6L717.9,267.1a32.42,32.42,0,0,0,4.4-16.3v-.6a34.06,34.06,0,0,0-4.4-16.3L593,17.7A33.31,33.31,0,0,0,564.3,1.1Z"/></clipPath><linearGradient id="Degradado_sin_nombre_6-4" x1="-695.77" y1="124.13" x2="-689.14" y2="124.13" gradientTransform="translate(59555 -10346.45) scale(85.37)" xlink:href="#Degradado_sin_nombre_6"/></defs><g id="Capa_2" data-name="Capa 2"><g id="layer"><path class="cls-2" d="M563.5,33.1Z"/><path class="cls-2" d="M313.7,33.1Z"/><polygon class="cls-2" points="688.4 249.5 688.4 249.4 688.4 249.6 688.4 249.5"/><path class="cls-2" d="M645,43.4a21.53,21.53,0,0,1-21.6-21.7A21.55,21.55,0,0,1,645.1,0c11.9,0,21.7,9.6,21.7,21.2-.1,12.7-9.4,22.2-21.8,22.2m0-40.8a19,19,0,0,0-18.7,19.2,18.72,18.72,0,0,0,18.6,19,19,19,0,0,0,18.8-18.7c0-11-8.1-19.5-18.7-19.5M643.9,8c4.6,0,6.7.4,8.5,1.5a8.24,8.24,0,0,1,3.6,7.3c0,3.6-1.3,5.8-4.7,7.5l5,10.9h-7.2l-3.7-9.8h-3.2v9.8h-6.5V8Zm-1.7,12.1h3.4c2.6,0,3.5-.9,3.5-3.3s-1.1-3.2-3.6-3.2h-3.4v6.5Z"/><g class="cls-3"><rect class="cls-4" x="564.2" y="34.3" width="0.1" height="0.1"/></g><g class="cls-5"><rect class="cls-6" x="564.2" y="466.9" width="0.1" height="0.1"/></g><g class="cls-7"><rect class="cls-8" x="689.1" y="250.5" height="0.1"/></g><g class="cls-9"><rect class="cls-10" x="213.8" y="1.1" width="508.5" height="498.9"/></g><path class="cls-11" d="M32.4,165.9H67.6l31.2,167H67.6l-4-27.2H35.2l-4.5,27.2H0Zm17.7,42.4L39,280H60.3"/><path class="cls-11" d="M102.9,274h30.7v19.4c0,9.7,0,19.4,14.9,19.4,15.1,0,15.1-9.9,15.1-24.8,0-11.8-2.4-16.8-10.4-22.2l-29.3-19.7c-15.6-10.6-19.9-22.2-19.9-39.3,0-13,1.2-25.5,12.1-34.5,6.2-5.2,17.5-9.9,33.6-9.9,18,0,42.6,7.3,42.6,35.9v16.6H161.8V202.8c0-8,0-17-13.5-17-8.3,0-14.2,3.1-14.2,16.6,0,14,3.1,17,9.7,21.5l30.3,20.6c5.9,4.3,12.3,10.2,15.8,16.3,4.5,7.6,4.5,12.8,4.5,26.2,0,14.9,0,24.1-5.4,32.9-9.2,14.9-28.4,16.6-39.7,16.6-26.3,0-46.4-9.9-46.4-38.1Z"/><polygon class="cls-11" points="206.9 165.9 237.7 165.9 237.7 231.7 265.8 231.7 265.8 165.9 296.6 165.9 296.6 332.9 265.8 332.9 265.8 256.5 237.7 256.5 237.7 332.9 206.9 332.9 206.9 165.9"/><path class="cls-11" d="M313.1,165.7h61.5c30,0,30,20.1,30,35.5v18c0,21.3-6.6,25.1-21.5,28.4,7.3,1.9,22.7,6.4,22.7,28.9v34.1c0,8.5.7,17.3,7.1,22.5H379.1a39.56,39.56,0,0,1-4.5-18.4V279c0-11.4,0-19.4-16.1-19.4H343.8v73.6H313.1Zm30.7,69.8h16.1c14,0,14.2-7.6,14.2-16.1V203.6c0-13.7-7.3-13.7-14.2-13.7H343.8Z"/><path class="cls-11" d="M442.2,165.9h35.2l31.2,167H477.4l-4-27.2H445l-4.5,27.2H409.8Zm6.7,114h21.3L460,208.2Z"/><polygon class="cls-11" points="515.6 165.7 596.4 165.7 596.4 191.3 546.3 191.3 546.3 230.5 593.4 230.5 593.4 255.8 546.3 255.8 546.3 307.1 598.6 307.1 598.6 332.9 515.6 332.9 515.6 165.7"/></g></g></svg>