<svg xmlns="http://www.w3.org/2000/svg" viewBox="0 0 175.75 108.25"><defs><style>.cls-1{fill:#f8f7f7;fill-rule:evenodd;}</style></defs><g id="Capa_2" data-name="Capa 2"><g id="Capa_1-2" data-name="Capa 1"><path class="cls-1" d="M66.4,104h1.66a4.39,4.39,0,0,0,3.12-.77,3.61,3.61,0,0,0,1.19-2.79,3.26,3.26,0,0,0-1.43-2.75,4.89,4.89,0,0,0-3-.62H63.84v11H66.4V104Zm0-4.93h1.43a2.23,2.23,0,0,1,1.41.31,1.43,1.43,0,0,1,.53,1.15,1.46,1.46,0,0,1-.35,1,1.87,1.87,0,0,1-1.57.48H66.4V99.09Z"/><path class="cls-1" d="M87.87,88.54,8.69,46.44,87.87,4l78.86,42.43L87.87,88.54Zm-.66,4.35,88.54-46.45L87.54,0,0,46.44,87.21,92.89Z"/><polygon class="cls-1" points="57.13 35.42 75.85 35.42 75.85 41.1 63.48 41.1 63.48 45.11 75.85 45.11 75.85 50.79 63.48 50.79 63.48 59.47 57.13 59.47 57.13 35.42 57.13 35.42"/><polygon class="cls-1" points="104.91 59.47 110.26 40.26 110.26 59.47 116.61 59.47 116.61 35.42 105.58 35.42 101.24 52.12 96.89 35.42 85.87 35.42 85.87 59.47 92.22 59.47 92.22 40.26 97.56 59.47 104.91 59.47 104.91 59.47"/><path class="cls-1" d="M41.26,103.81l1.17-3.87,1.17,3.87Zm-.63,2h3.56l.68,2.26h2.77l-3.45-11h-3l-3.53,11H40l.68-2.26Z"/><path class="cls-1" d="M54.08,104h1.66a4.39,4.39,0,0,0,3.12-.77,3.61,3.61,0,0,0,1.19-2.79,3.26,3.26,0,0,0-1.43-2.75,4.9,4.9,0,0,0-3-.62H51.52v11h2.56V104Zm0-4.93h1.43a2.23,2.23,0,0,1,1.41.31,1.53,1.53,0,0,1,.18,2.13,1.87,1.87,0,0,1-1.57.48H54.08V99.09Z"/><path class="cls-1" d="M77.69,103.74h1.88l1.68,4.35H84.1l-2-4.86A3,3,0,0,0,84,100.39a3.29,3.29,0,0,0-1.4-2.74,5.07,5.07,0,0,0-2.82-.56H75.12v11h2.57v-4.35Zm0-4.69H79a3.41,3.41,0,0,1,1.65.2,1.38,1.38,0,0,1,.62,1.13,1.48,1.48,0,0,1-.64,1.25,3.07,3.07,0,0,1-1.57.22H77.69v-2.8Z"/><path class="cls-1" d="M92.58,96.93c-3.25,0-4.71,2.72-4.71,5.64a6.91,6.91,0,0,0,1.15,4,4.07,4.07,0,0,0,3.56,1.73,4.23,4.23,0,0,0,3.64-1.86,7.2,7.2,0,0,0,1-3.82,7.1,7.1,0,0,0-1.18-4,4,4,0,0,0-3.5-1.68Zm0,2.1a1.57,1.57,0,0,1,1.59,1.07,6.57,6.57,0,0,1,.4,2.49,7,7,0,0,1-.34,2.31,1.6,1.6,0,0,1-1.65,1.25c-1.81,0-2-2.2-2-3.58a7.16,7.16,0,0,1,.35-2.29A1.66,1.66,0,0,1,92.58,99Z"/><polygon class="cls-1" points="106.78 108.09 104.01 108.09 100.71 97.09 103.45 97.09 105.66 104.95 107.94 97.09 110.1 97.09 106.78 108.09 106.78 108.09"/><polygon class="cls-1" points="115.39 99.22 115.39 101.45 119.56 101.45 119.56 103.52 115.39 103.52 115.39 105.96 120.68 105.96 120.68 108.09 112.83 108.09 112.83 97.09 120.68 97.09 120.68 99.22 115.39 99.22 115.39 99.22"/><path class="cls-1" d="M127.39,106h.86a2.35,2.35,0,0,0,2.36-1.17,4.61,4.61,0,0,0,.61-2.37,4.17,4.17,0,0,0-.79-2.49,2.33,2.33,0,0,0-2.16-.88h-.88V106Zm-2.57,2.07v-11H128c1.59,0,3,.09,4.15,1.23a5.69,5.69,0,0,1,1.7,4.24,6,6,0,0,1-1.42,4,5,5,0,0,1-4,1.53Z"/></g></g></svg>