<svg xmlns="http://www.w3.org/2000/svg" viewBox="0 0 47.32 55.74"><defs><style>.cls-1{fill:#fff;}.cls-2{fill:#e30613;}</style></defs><g id="Capa_2" data-name="Capa 2"><g id="Layer_1" data-name="Layer 1"><path class="cls-1" d="M42.84,0H4.48A4.5,4.5,0,0,0,0,4.48V36.36a4.5,4.5,0,0,0,4.48,4.48h9.81v-6H8.06A2.1,2.1,0,0,1,6,32.78V8.06A2.1,2.1,0,0,1,8.06,6h31.2a2.1,2.1,0,0,1,2.09,2.09V32.78a2.1,2.1,0,0,1-2.09,2.09H33v6h9.8a4.49,4.49,0,0,0,4.48-4.48V4.48A4.49,4.49,0,0,0,42.84,0Z"/><path class="cls-1" d="M8.81,50.23l-.13-2.77V43.6h3.44V55.74H8.76L4.84,49.13,5,51.9v3.84H1.54V43.6H4.9Z"/><path class="cls-1" d="M14.65,55.74V43.6H23v2.83H18.16v2.21H22v2.83H18.16v4.27Z"/><path class="cls-1" d="M24.07,55.74V43.6h5.28c3.15,0,4.68,1.6,4.68,4.1S32.63,52,29.48,52H27.66v3.78Zm5.08-6.61a1.28,1.28,0,0,0,1.45-1.42c0-1.12-1.16-1.28-1.92-1.28h-1v2.7Z"/><path class="cls-1" d="M32.52,55.74,36.87,43.6h4.05l4.34,12.14h-4l-.47-1.6h-4l-.45,1.6Zm6.34-8.48-1.23,4.35h2.51Z"/><path class="cls-1" d="M42.64,45.22a2.16,2.16,0,1,1,2.15,2.16A2.15,2.15,0,0,1,42.64,45.22Zm3.74,0a1.59,1.59,0,1,0-1.59,1.65A1.56,1.56,0,0,0,46.38,45.22Zm-.52,1.18H45.3l-.52-1h-.39v1h-.48V44.07H45c.61,0,.91.17.91.71s-.23.6-.64.63ZM45,45.07c.26,0,.44-.06.44-.35s-.33-.29-.56-.29h-.53v.64Z"/><path class="cls-2" d="M17,34.58s-3-1.31-3.16-6.18,1.71-5.8,1.84-7.91a15.85,15.85,0,0,0,0-3,7.3,7.3,0,0,1,4.22,5.26A4.69,4.69,0,0,0,20,19.31a7.49,7.49,0,0,1,.41-6.06,14,14,0,0,0,1.3,3.4c.78,1.38,1.82,2.48,2.5,3.64,1.44,2.51,2.5,4,2.5,4a7.57,7.57,0,0,0,.93-2.89c.13-1.58,0-3.56.92-4.74a19.69,19.69,0,0,1,2.5,4.21,14.25,14.25,0,0,1,.53,10.53,15.82,15.82,0,0,1-1.45,2.37L29.23,33a7.22,7.22,0,0,1-1.32,2.9,16.13,16.13,0,0,1-3.42,3.69A42,42,0,0,0,24.88,35a4.92,4.92,0,0,0-1.18-3.69S23.43,33,23,34.45a16.62,16.62,0,0,0-.79,3.95A3.59,3.59,0,0,1,18.82,36a24,24,0,0,0-1.31-3.16A4.89,4.89,0,0,1,17,34.58Z"/><path class="cls-2" d="M22.51,8.12a21.55,21.55,0,0,0,1.32,3.68c.79,1.58,2.37,3.43,2.76,5.27a11.12,11.12,0,0,1-.39,4.48,27.27,27.27,0,0,0-2.64-4.35,8,8,0,0,1-2-6.45C22,8.12,22.51,8.12,22.51,8.12Z"/></g></g></svg>