<svg xmlns="http://www.w3.org/2000/svg" viewBox="0 0 1635.88 441.21"><defs><style>.cls-1{fill:#dfdfdf;}.cls-2{fill:#343399;}.cls-3{fill:#fff402;}</style></defs><g id="Capa_2" data-name="Capa 2"><g id="Capa_1-2" data-name="Capa 1"><rect class="cls-1" width="220.61" height="220.61"/><rect class="cls-2" y="220.61" width="220.61" height="220.61"/><rect class="cls-2" x="220.61" width="220.61" height="220.61"/><rect class="cls-1" x="220.61" y="220.61" width="220.61" height="220.61"/><path class="cls-2" d="M93.47,171.11q-7-1.47-15.68-3.92a51.5,51.5,0,0,0-7.67-1.79l1.47-30.2H84.81l3.59,21.06q2.13,2.28,7.6,4.08a39.82,39.82,0,0,0,12.48,1.79q10.93,0,16.41-4.81t5.47-13.47a15.53,15.53,0,0,0-3.27-9.88,31.57,31.57,0,0,0-9-7.51,162.8,162.8,0,0,0-15.68-7.75A80.15,80.15,0,0,1,80,103.94q-8.91-8.58-8.9-23.27A30.19,30.19,0,0,1,75.84,64.1Q80.57,56.68,90,52.35T112.89,48A77.74,77.74,0,0,1,127,49.17q6.12,1.14,13.31,3.1,4.25,1.14,6.36,1.47l-1,28.57H132.65l-3.43-20.08c-1-1-2.94-1.94-5.88-2.86a32.68,32.68,0,0,0-9.8-1.39q-9.78,0-14.77,4.49c-3.32,3-5,7-5,12a15.85,15.85,0,0,0,3.67,10.45,33,33,0,0,0,8.9,7.43q5.22,3,16.49,8.57a141.28,141.28,0,0,1,15.67,8.65,41,41,0,0,1,11.27,11,27.1,27.1,0,0,1,4.73,15.91A35.08,35.08,0,0,1,150,153.64q-4.49,8.18-14.69,13.55t-26,5.39A77.45,77.45,0,0,1,93.47,171.11Z"/><path class="cls-3" d="M274.85,61.9l-17.63-2.12V49.66h50.93l19.43,70.19,4.57,19.1,3.92-19.1,19.26-70.19h50.45V59.78L388,61.9,401,159.36l13.23,1.79V171H362.19v-9.8l14.37-1.63L369.37,88l-3.1-29.87-6,25.13-23.67,82.61H319.25L295.1,87.53l-8.33-29.38L284.32,88l-6.2,71.5,16.48,1.63V171H249.22v-9.8l13.71-1.63Z"/><path class="cls-3" d="M97.87,282.5,84,280.38V270.26h52.24v10.12l-14.37,2.12v97.63l14.37,1.79v9.63H84v-9.79l13.87-1.63Z"/><path class="cls-2" d="M297.46,376.54Q282.78,360,282.77,331.23q0-18.93,7.75-33.05a54.8,54.8,0,0,1,21.31-21.8,61.22,61.22,0,0,1,30.69-7.67,103.94,103.94,0,0,1,13.87.9q6.71.9,15.84,2.36,6.86,1.15,7.51,1.15l-1.8,33.63h-15l-5.06-23.35q-1.78-1.78-6.2-2.94a46.08,46.08,0,0,0-11.26-1.14q-13.89,0-22.29,12.82t-8.4,37.14q0,23.5,8,38.36t23.35,14.85q7.35,0,11.35-1.38a18.77,18.77,0,0,0,6.77-4l7.18-16.82,13.72,1.31-3.27,25.3a41.3,41.3,0,0,0-6.77,1.23c-2.24.6-3.62.95-4.17,1.06q-6.53,1.8-12.16,2.86a76.71,76.71,0,0,1-13.79,1.05Q312.15,393.1,297.46,376.54Z"/><path class="cls-1" d="M549.71,399V318.24h12.18v35.08h40.24V318.24h12.22V399H602.13v-35.2H561.89V399Z"/><path class="cls-1" d="M639.14,318.24,661.61,384h.91L685,318.24h13.16L669.1,399H655l-29-80.73Z"/><path class="cls-1" d="M708.4,399H695.47l29-80.73h14.07l29,80.73H754.72l-22.83-66.06h-.63Zm2.17-31.61h41.94v10.25H710.57Z"/><path class="cls-1" d="M842.54,344.49h-12.3a18.68,18.68,0,0,0-2.64-6.93,19.64,19.64,0,0,0-4.73-5.09,20.54,20.54,0,0,0-6.25-3.15,24.61,24.61,0,0,0-7.31-1.06,22.71,22.71,0,0,0-12.48,3.5,23.82,23.82,0,0,0-8.67,10.29Q785,348.83,785,358.61t3.17,16.63a23.44,23.44,0,0,0,8.69,10.25A22.88,22.88,0,0,0,809.27,389a24.82,24.82,0,0,0,7.27-1,20.4,20.4,0,0,0,6.25-3.09,19.15,19.15,0,0,0,4.75-5,18.88,18.88,0,0,0,2.7-6.83l12.3,0a33,33,0,0,1-3.81,10.94,30.18,30.18,0,0,1-7.21,8.6,32.61,32.61,0,0,1-10,5.57,36.9,36.9,0,0,1-12.3,2,35.24,35.24,0,0,1-18.68-5A34.51,34.51,0,0,1,777.6,380.8q-4.71-9.3-4.71-22.19t4.73-22.22a34.6,34.6,0,0,1,12.93-14.26,35.09,35.09,0,0,1,18.64-5,38.28,38.28,0,0,1,12,1.83,32.23,32.23,0,0,1,10,5.36,30,30,0,0,1,7.37,8.6A33.55,33.55,0,0,1,842.54,344.49Z"/><path class="cls-1" d="M909.07,400.11a30.67,30.67,0,0,1-14-2.95,21.91,21.91,0,0,1-9-8.06,21.6,21.6,0,0,1-3.15-11.57,18.29,18.29,0,0,1,2-8.77,25.88,25.88,0,0,1,5.71-7.12,86.76,86.76,0,0,1,8.48-6.58l13-9.18a20.68,20.68,0,0,0,5.16-4.6,9.56,9.56,0,0,0,1.85-6,7.91,7.91,0,0,0-2.44-5.44,8.56,8.56,0,0,0-6.54-2.6,9,9,0,0,0-5,1.38,9.92,9.92,0,0,0-3.35,3.53,9.1,9.1,0,0,0-1.2,4.51,11.61,11.61,0,0,0,1.51,5.56,38.67,38.67,0,0,0,3.93,5.77c1.6,2,3.28,4,5,6.17L948.65,399H935.33l-31-36.46q-3.9-4.62-7.25-8.69a43.34,43.34,0,0,1-5.42-8.28,20.28,20.28,0,0,1-2.07-9.09,19.14,19.14,0,0,1,2.54-9.87,17.84,17.84,0,0,1,7.12-6.76,22.41,22.41,0,0,1,10.72-2.44,22.11,22.11,0,0,1,10.7,2.42,17.85,17.85,0,0,1,6.9,6.42A16.53,16.53,0,0,1,930,335a18.26,18.26,0,0,1-2.86,10.15,31.33,31.33,0,0,1-7.87,8.06L903,365.11a22.15,22.15,0,0,0-6.56,6.84,12.26,12.26,0,0,0-1.83,5.26,12.14,12.14,0,0,0,1.79,6.43,13.18,13.18,0,0,0,5,4.73,15.68,15.68,0,0,0,7.62,1.77,20.91,20.91,0,0,0,8.77-1.95,25,25,0,0,0,7.77-5.62,27.37,27.37,0,0,0,5.54-8.79,30.75,30.75,0,0,0,2-11.47h10.64a42.61,42.61,0,0,1-1.77,13.19,31.16,31.16,0,0,1-4.28,8.75,32.74,32.74,0,0,1-4.71,5.26c-.48.42-.92.84-1.34,1.26s-.87.84-1.34,1.26a25,25,0,0,1-9.92,6.11A35.32,35.32,0,0,1,909.07,400.11Z"/><path class="cls-1" d="M988.18,399V318.24H1017q9.42,0,15.61,3.43a22.39,22.39,0,0,1,9.26,9.36,30.54,30.54,0,0,1,0,26.73,22.53,22.53,0,0,1-9.3,9.38q-6.21,3.45-15.59,3.45H997.13V360.26h18.68a19.72,19.72,0,0,0,9.66-2.07,12.78,12.78,0,0,0,5.44-5.65,18.48,18.48,0,0,0,1.73-8.16,18.19,18.19,0,0,0-1.73-8.12,12.48,12.48,0,0,0-5.46-5.56,20.6,20.6,0,0,0-9.79-2h-15.3V399Z"/><path class="cls-1" d="M1070,318.24V399h-11.78V318.24Z"/><path class="cls-1" d="M1124.17,373.86V338.42H1136V399h-11.59V388.48h-.63a18.9,18.9,0,0,1-6.68,8.07,19.47,19.47,0,0,1-11.42,3.21,20.25,20.25,0,0,1-10.3-2.58,17.71,17.71,0,0,1-7-7.67,28,28,0,0,1-2.54-12.57V338.42h11.78v37.1q0,6.18,3.43,9.85a11.67,11.67,0,0,0,8.91,3.67,14.6,14.6,0,0,0,6.6-1.66,14,14,0,0,0,5.48-5A15.07,15.07,0,0,0,1124.17,373.86Z"/><path class="cls-1" d="M1151.8,399V338.42h11.31v9.86h.75a15.76,15.76,0,0,1,6.19-7.82,18.36,18.36,0,0,1,10.29-2.82,17.55,17.55,0,0,1,10.19,2.83,16.7,16.7,0,0,1,6.09,7.81h.63a17.22,17.22,0,0,1,6.9-7.75,21.16,21.16,0,0,1,11.27-2.89q8.24,0,13.46,5.16t5.23,15.57V399h-11.79v-39.5c0-4.09-1.12-7.07-3.35-8.91a12.22,12.22,0,0,0-8-2.75q-5.76,0-9,3.52a13,13,0,0,0-3.19,9.05V399h-11.75V358.72a10.56,10.56,0,0,0-3.07-7.92,11,11,0,0,0-8-3,11.4,11.4,0,0,0-6.16,1.75,13,13,0,0,0-4.54,4.87,14.72,14.72,0,0,0-1.71,7.21V399Z"/><path class="cls-1" d="M1250.82,399V318.24h11.78v30h.71a33.16,33.16,0,0,1,3-4.37,16.89,16.89,0,0,1,5.36-4.36,18.91,18.91,0,0,1,9.07-1.87,23.62,23.62,0,0,1,13.08,3.7,25,25,0,0,1,9,10.68,44.69,44.69,0,0,1,0,33.61,25.39,25.39,0,0,1-9,10.76,23.18,23.18,0,0,1-13,3.76,19.07,19.07,0,0,1-9-1.85,17,17,0,0,1-5.46-4.34,31.9,31.9,0,0,1-3-4.41h-1V399Zm11.55-30.27a30.88,30.88,0,0,0,1.85,11.19,16.77,16.77,0,0,0,5.36,7.51,15.13,15.13,0,0,0,17.42-.12,17.31,17.31,0,0,0,5.38-7.66,33.19,33.19,0,0,0,0-21.68,16.62,16.62,0,0,0-5.36-7.53,15.6,15.6,0,0,0-17.54-.12,16.18,16.18,0,0,0-5.34,7.37A30.71,30.71,0,0,0,1262.37,368.7Z"/><path class="cls-1" d="M1325.28,329.08A7.4,7.4,0,0,1,1320,327a6.74,6.74,0,0,1,0-9.93,7.73,7.73,0,0,1,10.53,0,6.72,6.72,0,0,1,0,9.93A7.38,7.38,0,0,1,1325.28,329.08Zm-6,69.89V338.42h11.79V399Z"/><path class="cls-1" d="M1358.74,363v36H1347V338.42h11.31v9.86h.75a17.28,17.28,0,0,1,6.56-7.73,20.32,20.32,0,0,1,11.29-2.91,22,22,0,0,1,10.84,2.58,17.52,17.52,0,0,1,7.22,7.66,27.81,27.81,0,0,1,2.56,12.58V399H1385.7V361.88q0-6.58-3.43-10.31t-9.42-3.72a14.69,14.69,0,0,0-7.27,1.77,12.62,12.62,0,0,0-5,5.18A17.09,17.09,0,0,0,1358.74,363Z"/><path class="cls-1" d="M1438.64,422.94a36.54,36.54,0,0,1-12.4-1.89,24.27,24.27,0,0,1-8.45-5,21.13,21.13,0,0,1-4.89-6.82L1423,405a24,24,0,0,0,2.86,3.69,14.51,14.51,0,0,0,4.89,3.33,19.71,19.71,0,0,0,8,1.38,18.07,18.07,0,0,0,11.08-3.26q4.37-3.24,4.37-10.34V387.93h-.75a28,28,0,0,1-3,4.3,16.93,16.93,0,0,1-5.46,4.1,20.21,20.21,0,0,1-9,1.73,25,25,0,0,1-12.91-3.37,23.5,23.5,0,0,1-9.07-10q-3.33-6.6-3.33-16.26a38,38,0,0,1,3.3-16.55,24.91,24.91,0,0,1,9-10.59,23.75,23.75,0,0,1,13-3.68,19.09,19.09,0,0,1,9.1,1.87,17,17,0,0,1,5.42,4.36,34.35,34.35,0,0,1,3,4.37h.87v-9.82H1466v61.89q0,7.8-3.63,12.81a21.3,21.3,0,0,1-9.8,7.41A38,38,0,0,1,1438.64,422.94Zm-.12-34.65a15.06,15.06,0,0,0,8.62-2.39,14.81,14.81,0,0,0,5.36-6.85,28.4,28.4,0,0,0,1.83-10.75,29.48,29.48,0,0,0-1.82-10.76,16.06,16.06,0,0,0-5.32-7.27,15.69,15.69,0,0,0-17.54.12,16.66,16.66,0,0,0-5.34,7.43,29.28,29.28,0,0,0-1.79,10.48,27.79,27.79,0,0,0,1.81,10.45,15.48,15.48,0,0,0,5.38,7A14.9,14.9,0,0,0,1438.52,388.29Z"/><path class="cls-3" d="M580.23,245.1q-11.85-2.49-26.44-6.61-9.64-2.76-12.95-3l2.48-51h22.31L571.69,220q3.59,3.85,12.81,6.89a67.49,67.49,0,0,0,21.08,3q18.45,0,27.68-8.13t9.23-22.73A26.24,26.24,0,0,0,637,182.42a53,53,0,0,0-15.15-12.67,275.42,275.42,0,0,0-26.45-13.08q-22.86-10.47-37.87-24.93t-15-39.26a50.92,50.92,0,0,1,8-28q8-12.54,23.83-19.84t38.7-7.3a131.43,131.43,0,0,1,23.83,1.93q10.33,1.94,22.46,5.24A108.25,108.25,0,0,0,670,47l-1.65,48.21h-22l-5.79-33.88q-2.47-2.48-9.91-4.82a54.93,54.93,0,0,0-16.53-2.34q-16.53,0-24.93,7.57T580.78,82A26.67,26.67,0,0,0,587,99.64a55.46,55.46,0,0,0,15,12.54q8.81,5.1,27.82,14.46a242.66,242.66,0,0,1,26.45,14.6,69.08,69.08,0,0,1,19,18.6q8,11.43,8,26.85a59.16,59.16,0,0,1-7.57,28.93q-7.59,13.78-24.8,22.87T607,247.58A131.26,131.26,0,0,1,580.23,245.1Z"/><path class="cls-3" d="M723.76,60.52l-22-3.58V39.86H848.55l3.58,46.28H832.85l-9.09-27.27-59.51-2.48V130.5l38.3-.83,4.4-22.59h17.64v66.67H807l-4.4-23.7-38.3-.82v77.69l66.67-3.31,16-35.26,20.66,5.78-7.16,50.42H702V228l21.76-2.76Z"/><path class="cls-3" d="M882.44,228l21.76-2.76V60.52l-20.66-3.85V39.86h39.94q5.24,0,11.57-.27c4.23-.18,7.44-.37,9.65-.55q14.31-1.11,23.69-1.11,28.36,0,45.45,5.79t24.8,17.63q7.69,11.85,7.71,31.13a65.16,65.16,0,0,1-10.19,35.26Q1026,144,1006.68,150.05q11,4.69,19.56,17.08t18.18,32.24q6.88,13.5,10.61,19.42t7.3,6.75l9.09,2.75v16.26h-46.83q-4.41,0-9.23-9t-12.54-28.23q-9.09-22.59-15.7-35.27t-14-15.7H944.7v68.87L970,228v16.53h-87.6Zm112.12-99.73q8.81-11.29,8.81-33.88,0-20.11-8.67-29.75T964.81,55a106.92,106.92,0,0,0-13.09.69q-5.37.69-7,.69V139q3.3.56,16,.55H970Q985.75,139.59,994.56,128.29Z"/><path class="cls-3" d="M1114.39,60.52l-29.75-3.58V39.86h85.95l32.78,118.46,7.72,32.23,6.61-32.23,32.5-118.46h85.13V56.94l-30,3.58,22,164.47,22.31,3v16.53h-87.88V228l24.25-2.76L1273.9,104.6l-5.24-50.41-10.19,42.42-40,139.4h-29.2l-40.77-132.24-14-49.58-4.13,50.41L1119.9,225.26l27.82,2.76v16.53h-76.58V228l23.14-2.76Z"/><path class="cls-3" d="M1386.57,60.52l-23.42-3.58V39.86h88.16V56.94l-24.25,3.58V225.26l24.25,3v16.26h-88.16V228l23.42-2.76Z"/><path class="cls-3" d="M1496.48,219.61q-24.78-27.95-24.79-76.44,0-31.95,13.09-55.79a92.34,92.34,0,0,1,36-36.77q22.86-12.95,51.79-13a177.67,177.67,0,0,1,23.41,1.51q11.29,1.52,26.73,4,11.56,1.92,12.67,1.93l-3,56.75H1607l-8.54-39.4q-3-3-10.46-5a77.93,77.93,0,0,0-19-1.93q-23.43,0-37.61,21.63t-14.18,62.67q0,39.67,13.49,64.74t39.4,25.07q12.39,0,19.14-2.34a31.54,31.54,0,0,0,11.44-6.75l12.12-28.38,23.14,2.21-5.51,42.7a70.62,70.62,0,0,0-11.43,2.06c-3.77,1-6.11,1.61-7,1.79q-11,3-20.52,4.83a128.67,128.67,0,0,1-23.28,1.79Q1521.28,247.58,1496.48,219.61Z"/></g></g></svg>