<svg xmlns="http://www.w3.org/2000/svg" viewBox="0 0 314.2 314.2"><defs><style>.cls-1,.cls-3{fill:#fff;}.cls-2{fill:#231f20;}.cls-3{stroke:#231f20;stroke-miterlimit:10;stroke-width:0.5px;}</style></defs><g id="Capa_2" data-name="Capa 2"><g id="Isolation_Mode" data-name="Isolation Mode"><path class="cls-1" d="M311.84,157.1A154.74,154.74,0,1,1,157.1,2.36,154.74,154.74,0,0,1,311.84,157.1"/><path class="cls-2" d="M157.1,0A157.1,157.1,0,1,0,314.2,157.1,157.1,157.1,0,0,0,157.1,0m0,308.29A151.19,151.19,0,1,1,308.28,157.1,151.18,151.18,0,0,1,157.1,308.29"/><path class="cls-2" d="M225.82,178.62c1.48-.7,19.45-6.23,15.32-17-2.9-7.54-8.48,1.39-12.37-1.52-1.25-.93-2-1.67,3.44-7s7.13-9.09,7.68-12.36.53-5.77-1.72-7-5.21,2.07-6.1-1.38c-.54-1.85.16-2.89.17-6.2,0-3.62-3.7-12.66-12.33-9.61-5.58,2-2.62,11.59-4,13.41s-2.73-3.84-5.87-4.74c-3.62-1-6.14,2.32-6.11,5.43s2,8.88,2.72,11.12c.37,1.78,1.33,6.6.73,8-.92,2.14-1.71,1.44-3.77-1.28-1.82-2.4-.86-1.39-4.07-5.26-4-4.92-6.43,1.91-6.72,6.48s3.17,20.45,3.12,22.56c-.24,9.53-5.54-1.39-5.71-1.65-3.48-5.3-10.17-2.82-8.08,2.87,3.81,10.36,7.24,19.31,3.63,28.2-.49,1.19-1.13,3.27-2,5.33,29.37-27.35,37.45-65.23,37.46-65.27a1.15,1.15,0,0,1,1.16-.65c.37.12.55.85.43,1.24,0,.07-9.59,56.32-60.8,85.05-1.13.61-1.26-.05-1.48-1.07.24-8.91.61-15,3.92-16.93,27.58-16.38,18.62-23.91,12.9-25s-9-10.47-1.1-14.53c13.89-7.81,21-35.69,3.74-29.59-1.57.13-12.91,6-2.92-11.07,9.46-17.1,6.55-32.34-3.26-25.7-2.57,1.73-9.86,9.44-8.4-1.71,2.61-16.93-1.59-23-6.55-24.07,0,0-.52-.09-.94-.13l-.45,0V77.6a9.94,9.94,0,0,0-1.39.16c-5,1.11-9.16,7.14-6.56,24.07,1.46,11.15-5.83,3.44-8.39,1.71-9.82-6.64-12.73,8.6-3.27,25.7,10,17.1-1.34,11.2-2.92,11.07-17.24-6.1-10.14,21.78,3.75,29.59,7.88,4.06,4.61,13.41-1.1,14.53s-14.69,8.65,12.89,25c3.31,2,3.72,8.06,4,17-.22,1-.39,1.6-1.51,1-51.2-28.73-60.78-85-60.79-85.05a1.19,1.19,0,0,1,.53-1.24c.36-.12.93.51,1,.91,0,0,8.11,37.66,37.48,65-.89-2.06-1.54-4.14-2-5.33-3.6-8.89-.18-17.84,3.63-28.2,2.09-5.69-4.59-8.17-8.07-2.87-.17.26-5.48,11.18-5.71,1.65-.06-2.11,3.4-18,3.11-22.56s-2.71-11.4-6.71-6.48c-3.21,3.87-2.26,2.86-4.08,5.26-2,2.72-2.84,3.42-3.76,1.28-.6-1.42.35-6.24.73-8,.67-2.24,2.69-8,2.72-11.12s-2.5-6.45-6.11-5.43c-3.14.9-4.39,6.61-5.87,4.74s1.53-11.44-4.06-13.41c-8.63-3-12.33,6-12.32,9.61,0,3.31.71,4.35.16,6.2-.89,3.45-3.85.12-6.09,1.38s-2.26,3.76-1.72,7,2.21,7,7.67,12.36,4.7,6,3.45,7c-3.89,2.91-9.47-6-12.37,1.52-4.13,10.73,13.84,16.26,15.31,17,3.85,1.84,6,6,.71,4.8-2.11-.49-5.35-2-7.89.79-6.69,7.46,10.76,20.48,22.35,22.88a130.05,130.05,0,0,1,26.34,8.82c4.32,2,22.74,14.59,24,19.71.33,1.51,1.11,2.63,2.89,2.63s2.54-1,2.86-2.53c1.17-5,19.68-17.85,24-19.81a129.91,129.91,0,0,1,26.33-8.82c11.59-2.4,29-15.42,22.35-22.88-2.54-2.82-5.77-1.28-7.88-.79-5.26,1.24-3.15-3,.7-4.8m-67.36,53.25s-.12,1-.94,1-.77-1-.77-1-.59-36-.59-60.69.59-51.56.59-51.56.22-1,.91-1,.8,1,.8,1,.6,26.88.6,51.56-.6,60.69-.6,60.69"/><path class="cls-2" d="M157.1,11.49A145.62,145.62,0,1,0,302.72,157.11,145.63,145.63,0,0,0,157.1,11.49M288.31,146.22l.09,4-12.31,8-.81.49,2.36-.07,10.92-.21.09,4.15-21.21.44-.08-3.82,12.63-8.4.51-.32-2.34.06-11,.23-.09-4.17,20.58-.42Zm-4.61-25.3.91,4.15-11.84,2.6a5.85,5.85,0,0,0-3.83,2.15,3.64,3.64,0,0,0-.36,2.8,3.76,3.76,0,0,0,1.54,2.52,5.56,5.56,0,0,0,4.16.32l12-2.64.91,4.15-12,2.63c-5.84,1.28-9.68-.9-10.84-6.13-1.1-5,1.58-8.66,7.37-9.93l11.31-2.48Zm-5.86-16.44a8.38,8.38,0,0,1,.21,6.51,13.37,13.37,0,0,1-15.57,6.81,8.73,8.73,0,0,1-4.85-11,11.79,11.79,0,0,1,6.57-6.2c6-2.62,11.46-1,13.64,3.93M247.2,90a11.91,11.91,0,0,1,5.33-7.3c5.41-3.66,11.09-3.11,14.13,1.38a7.75,7.75,0,0,1,.76,8.34l-.28.54-4-1.76.25-.57a3.68,3.68,0,0,0-.29-4.16,4.06,4.06,0,0,0-2.65-1.85c-1.56-.3-3.46.28-5.52,1.67-3.5,2.38-4.55,5.17-2.87,7.66a4.1,4.1,0,0,0,4,2l.64,0,0,4.21-.59,0a8.22,8.22,0,0,1-7.58-3.81A8.34,8.34,0,0,1,247.2,90M243.25,57.6a7.85,7.85,0,0,1,2.93,7.85l-.12.6-4.26-.67.09-.61a3.7,3.7,0,0,0-1.41-3.94,4.13,4.13,0,0,0-3.06-1.09c-1.59.12-3.28,1.18-4.89,3s-2.39,3.71-2.27,5.3A4.11,4.11,0,0,0,231.8,71a3.91,3.91,0,0,0,2.84,1.12,3.6,3.6,0,0,0,2.21-1.13l-2.4-2.07,2.69-3.14,5.74,4.93L241,72.88a8.94,8.94,0,0,1-6.06,3.39A8,8,0,0,1,229,74.18a8.34,8.34,0,0,1-3-5.76A11.84,11.84,0,0,1,229.26,60a11.89,11.89,0,0,1,7.85-4.47,8.36,8.36,0,0,1,6.14,2.09M215.06,39l3.49,2,.58,14.69s0,.55,0,.94l1.16-2.06,5.4-9.49,3.62,2.07L218.81,65.6l-3.32-1.9-.73-15.15s0-.36,0-.6c-.43.77-1.15,2-1.15,2l-5.43,9.54-3.62-2.06,10.19-17.88ZM203,34.78l.23-.58,4,1.55L199.45,55.5l-4-1.55Zm-22.77-6.43.15-.61,5.9,1.41c6.31,1.51,9.16,6.27,7.61,12.73-1.83,7.61-7.68,9.07-12.53,7.91l-5.92-1.42Zm-21.93-1.94,0-.62,4.25.24s-.9,15.83-1,17l9.95.57-.25,4.19L157.14,47Zm-8.56-.26.62,0,1.44,21.17-4.24.29-1.44-21.17Zm-23.86,3.52,2.53,11.84c.71,3.35,2.37,4.77,4.93,4.23,1.67-.36,3.79-1.36,2.86-5.68l-2.57-12,3.54-.76.62-.13,2.56,12c.65,3.06.36,5.58-.87,7.47a8,8,0,0,1-5.31,3.33,7.75,7.75,0,0,1-6-.86c-1.9-1.24-3.21-3.45-3.87-6.56l-2.56-11.94ZM107,35.91a6.68,6.68,0,0,1,5.11-.31,5.62,5.62,0,0,1,3,3.17,5.15,5.15,0,0,1,.44,2,4.9,4.9,0,0,1-.91,2.28,5.16,5.16,0,0,1,4.62,3.3,7.85,7.85,0,0,1,.68,3,5.66,5.66,0,0,1-.4,2.08,7.79,7.79,0,0,1-4.51,4l-7.87,3.35L98.88,39.38ZM71.92,57.42l13.86,4.86.88.33-1.49-1.83-6.83-8.52L81.09,50l.49-.39L94.87,66.2l-3,2.39L77.52,63.71,77,63.5l1.48,1.81,6.87,8.56-3.24,2.62L68.77,59.94Zm-9.75,9.1.41-.48,3.16,2.72L59.3,76.23l2.78,2.4,3.74-4.34L69,77l-3.74,4.34,3.82,3.29,6.72-7.8,3.15,2.72-9.49,11L53.37,76.74ZM27.65,134.71a7.83,7.83,0,0,1,5.22-6.56l.57-.21,1.63,4-.58.24a3.71,3.71,0,0,0-2.65,3.23,4.1,4.1,0,0,0,.65,3.19c.93,1.3,2.71,2.21,5.14,2.62,4.18.71,6.87-.6,7.37-3.58a6.54,6.54,0,0,0,.08-1,3.43,3.43,0,0,0-.6-2.05,3.53,3.53,0,0,0-2.1-1.32c-.15.85-.53,3.13-.53,3.13l-4.08-.69L39,128.3l2.9.49a9,9,0,0,1,6,3.44,8,8,0,0,1,1.24,6.12,8.29,8.29,0,0,1-3.39,5.53,11.87,11.87,0,0,1-8.89,1.59A11.89,11.89,0,0,1,29,141a8.11,8.11,0,0,1-1.52-4.77,9.23,9.23,0,0,1,.14-1.56M50.91,184.1a2.9,2.9,0,1,1-3.5-2.09h0a2.93,2.93,0,0,1,3.5,2.09m-3.33-26a2.9,2.9,0,1,1-2.93-2.83,2.94,2.94,0,0,1,2.93,2.83M26.72,173.32a9.63,9.63,0,0,1,2-7.27l.38-.5,3.39,2.61-.4.5a5.46,5.46,0,0,0-1.2,4.38,3.19,3.19,0,0,0,.95,2.15l1.21.31c.84-.1,1.39-.43,2-4.19s1.59-7.08,5.75-7.57a6.17,6.17,0,0,1,4.76,1.15c1.53,1.21,2.49,3.22,2.82,6a9.91,9.91,0,0,1-2.5,7.94l-.4.44-3.28-2.65.42-.5a6.64,6.64,0,0,0,1.57-5c-.37-3.08-1.63-3.33-2.68-3.2s-1.59.8-2.19,4.35c-.71,4.16-1.49,6.92-5.62,7.42a5.7,5.7,0,0,1-4.31-1.15,7.71,7.71,0,0,1-2.71-5.26m22,33.32-11.43,4.29-1.49-4,11.35-4.26A5.72,5.72,0,0,0,50.59,200a3.63,3.63,0,0,0,0-2.82c-.61-1.61-1.89-3.56-6.05-2L33,199.53l-1.5-4L43,191.24c5.59-2.1,9.71-.49,11.59,4.52,1.81,4.83-.33,8.8-5.88,10.88m6.82-91.49-8.78.95-1.22,3.26,7.4,2.77-1.47,3.92-19.87-7.43,3.28-8.78c1.54-4.08,4.84-5.71,8.64-4.29,2.86,1.07,4.39,3.16,4.39,5.93v.12l9.34-1ZM41.16,95.62,48.1,84.05l.32-.54L52,85.65s-4.51,7.52-5.07,8.47L50.07,96l3-4.91,3.57,2.14-3,4.92L58,100.74l5.29-8.83,3.58,2.14-7.48,12.48ZM157.1,252A94.87,94.87,0,1,1,252,157.11,94.86,94.86,0,0,1,157.1,252M277.44,210,262,202.91c-.47,1-4.17,9-4.17,9L254,210.19l5.68-12.33.27-.57,19.27,8.89Zm4.48-11.63-20.25-6.33,1.07-3.46.19-.6,20.25,6.33ZM286.85,180a7.71,7.71,0,0,1-5.22,6.55l-.56.21-1.65-4,.57-.24a3.71,3.71,0,0,0,2.68-3.21,4.09,4.09,0,0,0-.64-3.15c-.93-1.3-2.71-2.21-5.16-2.62-4.17-.7-6.86.59-7.36,3.55a4.1,4.1,0,0,0,1.51,4.17l.48.44-2.89,3.06-.45-.38a8.18,8.18,0,0,1-2.84-8c.9-5.36,5.83-8.22,12.28-7.13a11.86,11.86,0,0,1,7.87,4.43,8.26,8.26,0,0,1,1.38,6.34"/><path class="cls-2" d="M109.38,53.62l4.33-1.84a3.14,3.14,0,0,0,1.87-1.58l-.17-2.06L114,46.64a3.06,3.06,0,0,0-2.34.18l-4.41,1.88,2.1,4.92"/><path class="cls-2" d="M42.06,109.58a2.45,2.45,0,0,0-3.4,1.68l-1.81,4.87,4.83,1.81,1.82-4.87a3.87,3.87,0,0,0,.26-1.31,2.25,2.25,0,0,0-1.7-2.18"/><path class="cls-2" d="M261.32,109.71a4.54,4.54,0,0,0,.4,1.82c1.22,2.79,4.15,3.41,8,1.71,2.25-1,3.76-2.29,4.34-3.78a4.18,4.18,0,0,0-.15-3.28c-1.22-2.77-4.14-3.38-8-1.69-3,1.32-4.61,3.17-4.61,5.22"/><path class="cls-2" d="M187,45.29a6.77,6.77,0,0,0,2.73-4.41,9.92,9.92,0,0,0,.29-2.31,5.37,5.37,0,0,0-.73-2.87,6,6,0,0,0-3.94-2.5l-1.78-.42c-.26,1.07-2.74,11.47-3,12.53l1.78.43a6,6,0,0,0,4.65-.45"/><path class="cls-2" d="M111.48,41.44a2.06,2.06,0,0,0-.18-.84c-.52-1.24-1.43-1.56-2.74-1l-4.36,1.85,1.53,3.6,4.35-1.85c1.12-.49,1.4-1.18,1.4-1.76"/><path class="cls-1" d="M189.8,281a4.73,4.73,0,0,0-3.34-4.52c-.07,0-.11-.09-.22-.18.15-.21.25-.36.36-.5,1.83-2.33.6-6.82-2.87-7.48a10.54,10.54,0,0,0-3.5,0c-2.4.39-4.76.94-7.14,1.44-.62.13-1.23.29-1.89.45.68,3.32,1.33,6.54,2,9.75s1.26,6.41,2,9.6c.42-.06.71-.08,1-.14,2.66-.55,5.33-1.06,8-1.68a10.51,10.51,0,0,0,3-1.17A5.48,5.48,0,0,0,189.8,281Zm-14-8,1.39-.31,3.45-.72a5.47,5.47,0,0,1,1.06-.12,1.63,1.63,0,0,1,1.77,1.5,1.6,1.6,0,0,1-1.11,2,13.32,13.32,0,0,1-1.76.44l-4.05.84C176.25,275.43,176,274.29,175.76,273Zm8.15,10.89c-1.82.48-3.68.82-5.64,1.24-.36-1.69-.69-3.29-1.06-5,2-.4,3.79-.83,5.61-1.13a2.52,2.52,0,0,1,1.09,4.91Z"/><path class="cls-1" d="M165,275.6l-3.53,1.54a4,4,0,0,1-.46-.59c-1.48-2.66-5.42-2.39-6.93,0A8.2,8.2,0,0,0,153,282a7.11,7.11,0,0,0,1.17,3.41,4.53,4.53,0,0,0,5.92,1.33,2.9,2.9,0,0,0,1.44-2.51h-3.07v-3.66h7c.06,2.13.25,4.3-.69,6.37a6.8,6.8,0,0,1-4,3.68,9,9,0,0,1-5.48.3,7.88,7.88,0,0,1-5.62-5.16,13,13,0,0,1-.13-9.24c1.78-4.94,6.31-6.75,11.11-5.35A6.57,6.57,0,0,1,165,275.6Z"/><path class="cls-1" d="M143.05,273.51l-3.17,2.2c-.28-.31-.5-.58-.74-.84a5.58,5.58,0,0,0-4.58-1.93,2.73,2.73,0,0,0-1.3.41,1.39,1.39,0,0,0-.18,2.22,7.12,7.12,0,0,0,1.61,1c1.06.52,2.15,1,3.22,1.46a10.65,10.65,0,0,1,1.39.8,5.25,5.25,0,0,1,2.35,6.05,5.64,5.64,0,0,1-5.46,4.62,11.27,11.27,0,0,1-8.23-2.41,7.19,7.19,0,0,1-2-2.57l3.18-2,.63.75a6.81,6.81,0,0,0,6,2.37,1.79,1.79,0,0,0,1.65-1.17,1.66,1.66,0,0,0-.5-2.12,9.13,9.13,0,0,0-1.65-1c-.93-.45-1.9-.83-2.84-1.26a15.46,15.46,0,0,1-1.5-.82,4.83,4.83,0,0,1-2.54-4.74,5.39,5.39,0,0,1,3.21-4.83C134.93,268.18,140.73,269.32,143.05,273.51Z"/><path class="cls-1" d="M119.48,265.41l3.64,1.35c-.11.4-.19.74-.31,1.06q-1.71,4.64-3.41,9.26a11.76,11.76,0,0,1-2.42,4.14,7,7,0,0,1-6.73,2.15,8.77,8.77,0,0,1-4.8-2.45,7.37,7.37,0,0,1-1.86-6.77,23,23,0,0,1,1-3.59c1-2.69,2-5.37,3-8.05.15-.4.32-.78.52-1.27l3.61,1.31a5.83,5.83,0,0,1-.17.74c-1.15,3.15-2.32,6.3-3.48,9.45a7.25,7.25,0,0,0-.56,3.15,3.83,3.83,0,0,0,6.48,2.53,7.2,7.2,0,0,0,1.7-2.83l3.45-9.36C119.23,266,119.33,265.77,119.48,265.41Z"/><path class="cls-1" d="M211.9,274.07a7.12,7.12,0,0,1-2.49,5.37c-3.85,3.19-9.18,3.16-12.57-1.26a13,13,0,0,1-2.9-8.67,8.5,8.5,0,0,1,10.63-7.95,6.73,6.73,0,0,1,3,1.79l-1.39,1.48-1.31,1.41a2,2,0,0,1-.43-.24c-2.11-1.7-6.13-.2-6.4,3.16a8.51,8.51,0,0,0,3.06,7.44,4.14,4.14,0,0,0,6.78-2.19,8.59,8.59,0,0,1,.28-.88Z"/><path class="cls-3" d="M264.78,234.92s-39.72-19.42-108-19.44h-.11c-68.29,0-108,19.44-108,19.44l12.12,30.25s42.49-15.25,96-15.26,95.95,15.26,95.95,15.26Z"/><path class="cls-2" d="M106.89,226.82l2.62,15.79,9.76-1.35.65,3.9L106.6,247l-.62.08-3.27-19.69Z"/><path class="cls-2" d="M135.4,223.57l13.26-.54.62,0,.18,3.92-9.7.39.18,3.45c1,0,5.63-.23,5.63-.23l.18,3.9-5.63.23c0,.85.19,3.89.23,4.74l10.12-.41.19,3.9-14.3.58Z"/><path class="cls-2" d="M166.73,222.92l13.26.67.62,0-.17,3.91-9.7-.49c0,.77-.11,2.69-.14,3.45l5.63.29-.17,3.9-5.62-.28c0,.85-.17,3.89-.2,4.74l10.11.5-.16,3.91-14.29-.72Z"/><path class="cls-2" d="M206.32,226.87l-5.88-.85-.09.59-3.13,19.16,5.89.85c4.83.7,10.43-1.15,11.62-8.43C215.75,232,212.59,227.77,206.32,226.87Zm4.24,10.72a6.28,6.28,0,0,1-2.32,4.36,6.08,6.08,0,0,1-4.51.79l-1.76-.25c.16-1,1.78-11,1.95-12l1.77.25a5.9,5.9,0,0,1,4,2,4.84,4.84,0,0,1,.94,2.63A8.78,8.78,0,0,1,210.56,237.59Z"/></g></g></svg>